IKResults
version=1
nRows=5
nColumns=67
inDegrees=yes

Units are S.I. units (second, meters, Newtons, ...)
Angles are in degrees.

endheader
time	pelvis_tilt	pelvis_list	pelvis_rotation	pelvis_tx	pelvis_ty	pelvis_tz	hip_flexion_r	hip_adduction_r	hip_rotation_r	knee_angle_r	knee_rot_r	knee_adduc_r	ankle_angle_r	ankle_rot_r	ankle_add_r	subtalar_angle_r	mtp_angle_r	mtp_rot_r	mtp_add_r	hip_flexion_l	hip_adduction_l	hip_rotation_l	knee_angle_l	knee_rot_l	knee_adduc_l	ankle_angle_l	ankle_rot_l	ankle_add_l	subtalar_angle_l	mtp_angle_l	mtp_rot_l	mtp_add_l	lumbar_extension	lumbar_bending	lumbar_rotation	neck_flexion	neck_lateral_bending	neck_rotation	arm_flex_r	arm_add_r	arm_rot_r	elbow_flex_r	elbow_rot_r	elbow_add_r	pro_sup_r	wrist_flex_r	wrist_adduc_r	wrist_rot_r	wrist_dev_r	hand_finger_flex_r	hand_finger_adduc_r	hand_finger_rot_r	arm_flex_l	arm_add_l	arm_rot_l	elbow_flex_l	elbow_rot_l	elbow_add_l	pro_sup_l	wrist_flex_l	wrist_adduc_l	wrist_rot_l	wrist_dev_l	hand_finger_flex_l	hand_finger_adduc_l	hand_finger_rot_l
      2.24500000	      0.53720637	    -15.75329025	     15.72823122	     -2.14681623	      0.60216081	      0.60969626	     29.83668992	     10.67884398	    -13.38441123	    -49.82959493	     -5.00000000	     -1.58420587	     21.63686747	     -4.91406294	     -3.50697652	    -28.09228631	     -3.31965243	     -2.00000000	      2.00000000	     30.92940830	    -17.59225416	     10.77484811	    -76.75442336	      5.00000000	     -1.84094866	     19.78140861	     -0.83069376	      5.00000000	    -16.29730465	      4.00860955	      1.99142727	     -2.00000000	     -6.55603178	     16.69269373	     -4.24893722	      0.00000000	      0.00000000	      0.00000000	      0.00000000	      0.00000000	      0.00000000	      0.00000000	      0.00000000	      0.00000000	     -0.00042092	      0.00000000	      0.00000000	      0.00000000	      0.00000000	      0.00000000	      0.00000000	      0.00000000	      0.00000000	      0.00000000	      0.00000000	      0.00000000	      0.00000000	      0.00000000	      0.00000000	      0.00000000	      0.00000000	      0.00000000	      0.00000000	      0.00000000	      0.00000000	      0.00000000
      2.25000000	      0.58017943	    -15.60551023	     15.82508447	     -2.14434097	      0.60280700	      0.60967243	     29.39303674	     10.72430395	    -13.21490652	    -49.62145448	     -5.00000000	     -1.66216927	     21.68612213	     -4.90366131	     -3.48543110	    -28.07088303	     -3.32683470	     -2.00000000	      2.00000000	     31.70714810	    -17.39947108	     10.70999711	    -76.97884942	      5.00000000	     -1.93944148	     19.82027459	     -0.93481264	      5.00000000	    -16.26489506	      4.01894379	      1.98955199	     -2.00000000	     -6.75294257	     16.53749269	     -4.06046223	      0.00000000	      0.00000000	      0.00000000	      0.00000000	      0.00000000	      0.00000000	      0.00000000	      0.00000000	      0.00000000	     -0.00042092	      0.00000000	      0.00000000	      0.00000000	      0.00000000	      0.00000000	      0.00000000	      0.00000000	      0.00000000	      0.00000000	      0.00000000	      0.00000000	      0.00000000	      0.00000000	      0.00000000	      0.00000000	      0.00000000	      0.00000000	      0.00000000	      0.00000000	      0.00000000	      0.00000000
      2.25500000	      0.63949314	    -15.39324226	     16.01781441	     -2.14268381	      0.60323671	      0.60972786	     29.12812331	     10.67341188	    -12.95301278	    -49.67529357	     -5.00000000	     -1.67159270	     21.88756525	     -4.91590802	     -3.42764459	    -28.04481890	     -3.34819315	     -2.00000000	      2.00000000	     32.61463870	    -17.01164720	     10.86204951	    -77.24941091	      5.00000000	     -2.05096103	     19.93223063	     -1.27276155	      5.00000000	    -16.15356231	      4.04910557	      1.98268483	     -2.00000000	     -7.15088819	     16.27903068	     -3.69805963	      0.00000000	      0.00000000	      0.00000000	      0.00000000	      0.00000000	      0.00000000	      0.00000000	      0.00000000	      0.00000000	     -0.00042092	      0.00000000	      0.00000000	      0.00000000	      0.00000000	      0.00000000	      0.00000000	      0.00000000	      0.00000000	      0.00000000	      0.00000000	      0.00000000	      0.00000000	      0.00000000	      0.00000000	      0.00000000	      0.00000000	      0.00000000	      0.00000000	      0.00000000	      0.00000000	      0.00000000
      2.26000000	      0.65338636	    -15.22453204	     16.03007218	     -2.14005259	      0.60392607	      0.60954767	     28.64443650	     10.69071815	    -12.77573852	    -49.39839354	     -5.00000000	     -1.74735376	     21.93059893	     -4.91887134	     -3.40670853	    -28.03060194	     -3.35594179	     -2.00000000	      2.00000000	     33.35541446	    -16.81646707	     10.79477782	    -77.41685657	      5.00000000	     -2.18885846	     19.98223184	     -1.33735533	      5.00000000	    -16.14797804	      4.05797148	      1.98515524	     -2.00000000	     -7.28658729	     16.13352625	     -3.61224306	      0.00000000	      0.00000000	      0.00000000	      0.00000000	      0.00000000	      0.00000000	      0.00000000	      0.00000000	      0.00000000	     -0.00042092	      0.00000000	      0.00000000	      0.00000000	      0.00000000	      0.00000000	      0.00000000	      0.00000000	      0.00000000	      0.00000000	      0.00000000	      0.00000000	      0.00000000	      0.00000000	      0.00000000	      0.00000000	      0.00000000	      0.00000000	      0.00000000	      0.00000000	      0.00000000	      0.00000000
      2.26500000	      0.67498987	    -15.05064138	     16.12040791	     -2.13761226	      0.60461136	      0.60951171	     28.21438939	     10.74809989	    -12.55515444	    -49.15496146	     -5.00000000	     -1.85720084	     21.98392503	     -4.92701296	     -3.38531973	    -28.02026571	     -3.36401339	     -2.00000000	      2.00000000	     34.13680745	    -16.54155885	     10.84014282	    -77.51261434	      5.00000000	     -2.25132709	     20.04718719	     -1.40032379	      5.00000000	    -16.15091039	      4.06821965	      1.98946500	     -2.00000000	     -7.46832415	     15.91859889	     -3.41198917	      0.00000000	      0.00000000	      0.00000000	      0.00000000	      0.00000000	      0.00000000	      0.00000000	      0.00000000	      0.00000000	     -0.00042092	      0.00000000	      0.00000000	      0.00000000	      0.00000000	      0.00000000	      0.00000000	      0.00000000	      0.00000000	      0.00000000	      0.00000000	      0.00000000	      0.00000000	      0.00000000	      0.00000000	      0.00000000	      0.00000000	      0.00000000	      0.00000000	      0.00000000	      0.00000000	      0.00000000
